# xmcd CD database file
#
# Track frame offsets:
#	150
#	16456
#	33697
#	45304
#	60263
#	75816
#	94755
#	109932
#	121469
#	137656
#	157313
#	173294
#
# Disc length: 2484 seconds
#
# Revision: 0
# Processed by: cddbd v1.5.2PL0 Copyright (c) Steve Scherf et al.
# Submitted via: CDex 1.83
#
DISCID=8c09b20c
DTITLE=Tucker, Tanya - While I'm Livin'
DYEAR=2019
DGENRE=Country
TTITLE0=Mustang Ridge
TTITLE1=The Wheels Of Laredo
TTITLE2=I Don't Owe You Anything
TTITLE3=The Day My Heart Goes Still
TTITLE4=High Ridin' Heroes
TTITLE5=The House That Built Me
TTITLE6=Hard Luck
TTITLE7=Rich
TTITLE8=Seminole Wind Calling
TTITLE9=Bring My Flowers Now
TTITLE10=Delta Dawn
TTITLE11=Pack Your Lies And Go
EXTD=YEAR: 2019
EXTT0=
EXTT1=
EXTT2=
EXTT3=
EXTT4=
EXTT5=
EXTT6=
EXTT7=
EXTT8=
EXTT9=
EXTT10=
EXTT11=
PLAYORDER=
